<svg class="svg-icon" style="width: 1em;height: 1em;vertical-align: middle;fill: currentColor;overflow: hidden;" viewBox="0 0 1024 1024" version="1.1" xmlns="http://www.w3.org/2000/svg"><path d="M924 0H100C45 0 0 45 0 100v824c0 55 45 100 100 100h824c55 0 100-45 100-100V100c0-55-45-100-100-100z m55 924c0 14.58-5.75 28.36-16.19 38.81S938.58 979 924 979H100c-14.58 0-28.36-5.75-38.81-16.19S45 938.58 45 924V315h934v609zM45 270V100c0-14.58 5.75-28.36 16.19-38.81C71.64 50.75 85.42 45 100 45h824c14.58 0 28.36 5.75 38.81 16.19C973.25 71.64 979 85.42 979 100v170H45z" fill="#303133" /><path d="M157.5 157.5m-22.5 0a22.5 22.5 0 1 0 45 0 22.5 22.5 0 1 0-45 0Z" fill="#303133" /><path d="M292.5 157.5m-22.5 0a22.5 22.5 0 1 0 45 0 22.5 22.5 0 1 0-45 0Z" fill="#303133" /><path d="M427.5 157.5m-22.5 0a22.5 22.5 0 1 0 45 0 22.5 22.5 0 1 0-45 0Z" fill="#303133" /><path d="M196.08 729.48l28.46-30.43c17.75 14.62 41.19 24.46 62.95 24.46 25.78 0 39.51-9.84 39.51-25.36 0-16.41-15.07-21.48-37.17-29.83l-33.15-12.53c-25.11-9.25-50.23-27.15-50.23-59.37 0-36.1 35.49-63.84 85.72-63.84 28.8 0 57.59 10.14 77.68 28.34l-25.11 27.74c-15.74-11.63-32.14-18.2-52.57-18.2-21.76 0-35.83 8.65-35.83 23.27 0 15.81 17.75 21.48 38.84 28.94l32.48 12.23c30.14 11.04 49.89 28.04 49.89 59.96 0 36.1-33.82 66.83-91.08 66.83-33.14 0.01-66.28-11.63-90.39-32.21zM641.41 810.92c-8.37 3.58-23.44 6.56-41.52 6.56-50.56 0-85.72-24.16-102.8-57.58-52.9-8.95-88.06-50.71-88.06-113.66 0-71.9 45.2-113.66 110.83-113.66s110.83 42.06 110.83 113.66c0 60.26-32.14 100.83-81.37 112.17 11.38 16.71 33.82 23.57 56.25 23.57 10.71 0 20.09-1.49 27.12-3.58l8.72 32.52zM519.87 725.6c36.83 0 60.27-29.83 60.27-79.35 0-47.43-23.44-75.77-60.27-75.77s-60.27 28.34-60.27 75.77c0 49.52 23.44 79.35 60.27 79.35zM679.25 536.76h49.56v183.77h100.45v36.99H679.25V536.76z" fill="#303133" /></svg>